# xmcd
#
# Track frame offsets:
#	150
#	18947
#	39879
#	59112
#	76941
#	96292
#	114671
#	136446
#	155661
#	174834
#	192210
#	212386
#
# Disc length: 3109 seconds
#
# Revision: 1
# Processed by: cddbd v1.5.2PL0 Copyright (c) Steve Scherf et al.
# Submitted via: audiograbber 1.83.01
#
DISCID=980c230c
DTITLE=Bernie Cox - Childhood Dreams
DYEAR=2006
DGENRE=Country Rock
TTITLE0=Bernie Cox - Lawyers and Lies
TTITLE1=Bernie Cox - Poetry in motion
TTITLE2=Bernie Cox - two headed coin
TTITLE3=Bernie Cox - Life at La Costa 
TTITLE4=Bernie Cox - Red Red Rose
TTITLE5=Bernie Cox - Childhood Dreams
TTITLE6=Bernie Cox - Is it you?
TTITLE7=Bernie Cox - It's been so long
TTITLE8=Bernie Cox - When you look at love
TTITLE9=Bernie Cox - Long Cold minute
TTITLE10=Bernie Cox - Forever is here to stay
TTITLE11=Bernie Cox - Sister Mother Mary
EXTD=
EXTT0=
EXTT1=
EXTT2=
EXTT3=
EXTT4=
EXTT5=
EXTT6=
EXTT7=
EXTT8=
EXTT9=
EXTT10=
EXTT11=
PLAYORDER=
